{
	"asset":{
		"version":"2.0",
		"generator":"Created using the official Cinema 4D glTF Exporter 1.000x284978"
	},
	"scenes":[{
		"nodes":[0,
		8]
	}],
	"nodes":[{
		"name":"火箭",
		"translation":[-111.79642486572266,
		-72.72809600830078,
		2.7826638221740724],
		"rotation":[0.27932220697402956,
		0.6575780510902405,
		0.5804822444915772,
		0.3906540274620056],
		"scale":[1.0,
		1.0,
		1.0],
		"children":[1,
		2,
		3,
		4,
		5,
		6,
		7]
	},
	{
		"name":"火箭-火箭1",
		"translation":[-2.475797344914099e-14,
		5.3290705182007517e-15,
		8.368306048112118e-15],
		"rotation":[3.469446951953614e-16,
		-9.107298248878238e-18,
		-3.159728815010309e-33,
		-1.0],
		"scale":[1.0,
		1.0,
		1.0],
		"mesh":0
	},
	{
		"name":"火箭-火箭1",
		"translation":[-2.475797344914099e-14,
		5.3290705182007517e-15,
		8.368306048112118e-15],
		"rotation":[3.469446951953614e-16,
		-9.107298248878238e-18,
		-3.159728815010309e-33,
		-1.0],
		"scale":[1.0,
		1.0,
		1.0],
		"mesh":1
	},
	{
		"name":"火箭-窗户2",
		"translation":[-2.475797344914099e-14,
		5.3290705182007517e-15,
		8.368306048112118e-15],
		"rotation":[3.469446951953614e-16,
		-9.107298248878238e-18,
		-3.159728815010309e-33,
		-1.0],
		"scale":[1.0,
		1.0,
		1.0],
		"mesh":2
	},
	{
		"name":"火箭-窗户1",
		"translation":[-2.475797344914099e-14,
		5.3290705182007517e-15,
		8.368306048112118e-15],
		"rotation":[3.469446951953614e-16,
		-9.107298248878238e-18,
		-3.159728815010309e-33,
		-1.0],
		"scale":[1.0,
		1.0,
		1.0],
		"mesh":3
	},
	{
		"name":"火箭-火箭1",
		"translation":[-2.475797344914099e-14,
		5.3290705182007517e-15,
		8.368306048112118e-15],
		"rotation":[3.469446951953614e-16,
		-9.107298248878238e-18,
		-3.159728815010309e-33,
		-1.0],
		"scale":[1.0,
		1.0,
		1.0],
		"mesh":4
	},
	{
		"name":"火箭-火箭2",
		"translation":[-2.475797344914099e-14,
		5.3290705182007517e-15,
		8.368306048112118e-15],
		"rotation":[3.469446951953614e-16,
		-9.107298248878238e-18,
		-3.159728815010309e-33,
		-1.0],
		"scale":[1.0,
		1.0,
		1.0],
		"mesh":5
	},
	{
		"name":"火箭-火箭1",
		"translation":[-2.475797344914099e-14,
		5.3290705182007517e-15,
		8.368306048112118e-15],
		"rotation":[3.469446951953614e-16,
		-9.107298248878238e-18,
		-3.159728815010309e-33,
		-1.0],
		"scale":[1.0,
		1.0,
		1.0],
		"mesh":6
	},
	{
		"name":"星球",
		"translation":[0.0,
		0.0,
		0.0],
		"rotation":[-1.2246468525851679e-16,
		-1.2246468525851679e-16,
		-1.4997597572211943e-32,
		1.0],
		"scale":[1.0,
		1.0,
		1.0],
		"children":[9,
		10]
	},
	{
		"name":"星球-星球1",
		"translation":[0.0,
		0.0,
		0.0],
		"rotation":[-1.2246468525851679e-16,
		-1.2246468525851679e-16,
		-1.4997597572211943e-32,
		1.0],
		"scale":[1.0,
		1.0,
		1.0],
		"mesh":7
	},
	{
		"name":"星球-星球1",
		"translation":[0.0,
		0.0,
		0.0],
		"rotation":[-1.2246468525851679e-16,
		-1.2246468525851679e-16,
		-1.4997597572211943e-32,
		1.0],
		"scale":[1.0,
		1.0,
		1.0],
		"mesh":8
	}],
	"meshes":[{
		"name":"火箭-火箭1",
		"primitives":[{
			"attributes":{
				"POSITION":1,
				"NORMAL":2,
				"TEXCOORD_0":3
			},
			"indices":0,
			"material":0
		}]
	},
	{
		"name":"火箭-火箭1",
		"primitives":[{
			"attributes":{
				"POSITION":9,
				"NORMAL":10,
				"TEXCOORD_0":11
			},
			"indices":8,
			"material":0
		}]
	},
	{
		"name":"火箭-窗户2",
		"primitives":[{
			"attributes":{
				"POSITION":17,
				"NORMAL":18,
				"TEXCOORD_0":19
			},
			"indices":16,
			"material":1
		}]
	},
	{
		"name":"火箭-窗户1",
		"primitives":[{
			"attributes":{
				"POSITION":25,
				"NORMAL":26,
				"TEXCOORD_0":27
			},
			"indices":24,
			"material":2
		}]
	},
	{
		"name":"火箭-火箭1",
		"primitives":[{
			"attributes":{
				"POSITION":33,
				"NORMAL":34,
				"TEXCOORD_0":35
			},
			"indices":32,
			"material":0
		}]
	},
	{
		"name":"火箭-火箭2",
		"primitives":[{
			"attributes":{
				"POSITION":41,
				"NORMAL":42,
				"TEXCOORD_0":43
			},
			"indices":40,
			"material":3
		}]
	},
	{
		"name":"火箭-火箭1",
		"primitives":[{
			"attributes":{
				"POSITION":49,
				"NORMAL":50,
				"TEXCOORD_0":51
			},
			"indices":48,
			"material":0
		}]
	},
	{
		"name":"星球-星球1",
		"primitives":[{
			"attributes":{
				"POSITION":57,
				"NORMAL":58,
				"TEXCOORD_0":59
			},
			"indices":56,
			"material":4
		}]
	},
	{
		"name":"星球-星球1",
		"primitives":[{
			"attributes":{
				"POSITION":61,
				"NORMAL":62,
				"TEXCOORD_0":63
			},
			"indices":60,
			"material":5
		}]
	}],
	"accessors":[{
		"bufferView":0,
		"type":"SCALAR",
		"componentType":5123,
		"min":[0],
		"byteOffset":0,
		"count":43776,
		"max":[8227]
	},
	{
		"bufferView":1,
		"type":"VEC3",
		"componentType":5126,
		"min":[-11.795900344848633,
		-0.15458938479423524,
		-12.026230812072754],
		"byteOffset":0,
		"count":8228,
		"max":[12.162757873535157,
		13.049072265625,
		12.223670959472657]
	},
	{
		"bufferView":1,
		"type":"VEC3",
		"componentType":5126,
		"min":[-0.9997813105583191,
		-0.9999688267707825,
		-0.999750018119812],
		"byteOffset":12,
		"count":8228,
		"max":[0.9997813105583191,
		0.9999688267707825,
		0.9996563196182251]
	},
	{
		"bufferView":1,
		"type":"VEC2",
		"componentType":5126,
		"min":[0.0,
		0.0],
		"byteOffset":24,
		"count":8228,
		"max":[1.0,
		1.0]
	},
	{
		"bufferView":2,
		"type":"SCALAR",
		"componentType":5126,
		"min":[0.0],
		"byteOffset":0,
		"count":61,
		"max":[2.0]
	},
	{
		"bufferView":2,
		"type":"VEC3",
		"componentType":5126,
		"min":[-3.5839676593069679e-16,
		-133.39999389648438,
		2.842170943040401e-14],
		"byteOffset":244,
		"count":61,
		"max":[4.266840515892295e-13,
		133.39999389648438,
		266.79998779296877]
	},
	{
		"bufferView":3,
		"type":"SCALAR",
		"componentType":5126,
		"min":[0.0],
		"byteOffset":0,
		"count":61,
		"max":[2.0]
	},
	{
		"bufferView":3,
		"type":"VEC4",
		"componentType":5126,
		"min":[-0.7071067690849304,
		-1.2680293919842506e-15,
		-3.9355704533770769e-15,
		-1.0],
		"byteOffset":244,
		"count":61,
		"max":[1.0,
		1.0106430784888625e-15,
		4.1693047482489278e-16,
		0.9986737966537476]
	},
	{
		"bufferView":4,
		"type":"SCALAR",
		"componentType":5123,
		"min":[0],
		"byteOffset":0,
		"count":10944,
		"max":[2056]
	},
	{
		"bufferView":5,
		"type":"VEC3",
		"componentType":5126,
		"min":[-0.5207415223121643,
		20.551401138305665,
		-2.8288655281066896],
		"byteOffset":0,
		"count":2057,
		"max":[0.8898982405662537,
		33.039485931396487,
		2.845954179763794]
	},
	{
		"bufferView":5,
		"type":"VEC3",
		"componentType":5126,
		"min":[-0.9999688267707825,
		-0.9999688267707825,
		-0.9998750686645508],
		"byteOffset":12,
		"count":2057,
		"max":[0.9999688267707825,
		0.9999688267707825,
		0.9998750686645508]
	},
	{
		"bufferView":5,
		"type":"VEC2",
		"componentType":5126,
		"min":[0.0,
		0.0],
		"byteOffset":24,
		"count":2057,
		"max":[1.0,
		1.0]
	},
	{
		"bufferView":6,
		"type":"SCALAR",
		"componentType":5126,
		"min":[0.0],
		"byteOffset":0,
		"count":61,
		"max":[2.0]
	},
	{
		"bufferView":6,
		"type":"VEC3",
		"componentType":5126,
		"min":[-3.5839676593069679e-16,
		-133.39999389648438,
		2.842170943040401e-14],
		"byteOffset":244,
		"count":61,
		"max":[4.266840515892295e-13,
		133.39999389648438,
		266.79998779296877]
	},
	{
		"bufferView":7,
		"type":"SCALAR",
		"componentType":5126,
		"min":[0.0],
		"byteOffset":0,
		"count":61,
		"max":[2.0]
	},
	{
		"bufferView":7,
		"type":"VEC4",
		"componentType":5126,
		"min":[-0.7071067690849304,
		-1.2680293919842506e-15,
		-3.9355704533770769e-15,
		-1.0],
		"byteOffset":244,
		"count":61,
		"max":[1.0,
		1.0106430784888625e-15,
		4.1693047482489278e-16,
		0.9986737966537476]
	},
	{
		"bufferView":8,
		"type":"SCALAR",
		"componentType":5123,
		"min":[0],
		"byteOffset":0,
		"count":1152,
		"max":[208]
	},
	{
		"bufferView":9,
		"type":"VEC3",
		"componentType":5126,
		"min":[-5.449576377868652,
		15.050992012023926,
		-9.20308780670166],
		"byteOffset":0,
		"count":209,
		"max":[-0.7529603838920593,
		20.15631866455078,
		-7.188144683837891]
	},
	{
		"bufferView":9,
		"type":"VEC3",
		"componentType":5126,
		"min":[-0.9552813172340393,
		-0.7798125147819519,
		-0.9995312690734863],
		"byteOffset":12,
		"count":209,
		"max":[0.4464062750339508,
		0.7439062595367432,
		-0.2955000102519989]
	},
	{
		"bufferView":9,
		"type":"VEC2",
		"componentType":5126,
		"min":[0.04576456546783447,
		0.04576456546783447],
		"byteOffset":24,
		"count":209,
		"max":[0.954235315322876,
		0.954235315322876]
	},
	{
		"bufferView":10,
		"type":"SCALAR",
		"componentType":5126,
		"min":[0.0],
		"byteOffset":0,
		"count":61,
		"max":[2.0]
	},
	{
		"bufferView":10,
		"type":"VEC3",
		"componentType":5126,
		"min":[-3.5839676593069679e-16,
		-133.39999389648438,
		2.842170943040401e-14],
		"byteOffset":244,
		"count":61,
		"max":[4.266840515892295e-13,
		133.39999389648438,
		266.79998779296877]
	},
	{
		"bufferView":11,
		"type":"SCALAR",
		"componentType":5126,
		"min":[0.0],
		"byteOffset":0,
		"count":61,
		"max":[2.0]
	},
	{
		"bufferView":11,
		"type":"VEC4",
		"componentType":5126,
		"min":[-0.7071067690849304,
		-1.2680293919842506e-15,
		-3.9355704533770769e-15,
		-1.0],
		"byteOffset":244,
		"count":61,
		"max":[1.0,
		1.0106430784888625e-15,
		4.1693047482489278e-16,
		0.9986737966537476]
	},
	{
		"bufferView":12,
		"type":"SCALAR",
		"componentType":5123,
		"min":[0],
		"byteOffset":0,
		"count":2112,
		"max":[409]
	},
	{
		"bufferView":13,
		"type":"VEC3",
		"componentType":5126,
		"min":[-5.4520063400268559,
		15.025790214538575,
		-9.194695472717286],
		"byteOffset":0,
		"count":410,
		"max":[-0.4193023443222046,
		20.203514099121095,
		-6.12428092956543]
	},
	{
		"bufferView":13,
		"type":"VEC3",
		"componentType":5126,
		"min":[-0.9947813153266907,
		-0.9998437762260437,
		-0.8943750262260437],
		"byteOffset":12,
		"count":410,
		"max":[0.9878125190734863,
		0.9995312690734863,
		0.9893438220024109]
	},
	{
		"bufferView":13,
		"type":"VEC2",
		"componentType":5126,
		"min":[0.0,
		0.0],
		"byteOffset":24,
		"count":410,
		"max":[1.0,
		1.0]
	},
	{
		"bufferView":14,
		"type":"SCALAR",
		"componentType":5126,
		"min":[0.0],
		"byteOffset":0,
		"count":61,
		"max":[2.0]
	},
	{
		"bufferView":14,
		"type":"VEC3",
		"componentType":5126,
		"min":[-3.5839676593069679e-16,
		-133.39999389648438,
		2.842170943040401e-14],
		"byteOffset":244,
		"count":61,
		"max":[4.266840515892295e-13,
		133.39999389648438,
		266.79998779296877]
	},
	{
		"bufferView":15,
		"type":"SCALAR",
		"componentType":5126,
		"min":[0.0],
		"byteOffset":0,
		"count":61,
		"max":[2.0]
	},
	{
		"bufferView":15,
		"type":"VEC4",
		"componentType":5126,
		"min":[-0.7071067690849304,
		-1.2680293919842506e-15,
		-3.9355704533770769e-15,
		-1.0],
		"byteOffset":244,
		"count":61,
		"max":[1.0,
		1.0106430784888625e-15,
		4.1693047482489278e-16,
		0.9986737966537476]
	},
	{
		"bufferView":16,
		"type":"SCALAR",
		"componentType":5123,
		"min":[0],
		"byteOffset":0,
		"count":6528,
		"max":[1128]
	},
	{
		"bufferView":17,
		"type":"VEC3",
		"componentType":5126,
		"min":[-5.231419086456299,
		1.934573769569397,
		-5.450552463531494],
		"byteOffset":0,
		"count":1129,
		"max":[5.944595813751221,
		4.460997104644775,
		5.729555130004883]
	},
	{
		"bufferView":17,
		"type":"VEC3",
		"componentType":5126,
		"min":[-0.9999688267707825,
		-0.9999688267707825,
		-0.9995312690734863],
		"byteOffset":12,
		"count":1129,
		"max":[0.9999688267707825,
		0.030093751847743989,
		0.9998750686645508]
	},
	{
		"bufferView":17,
		"type":"VEC2",
		"componentType":5126,
		"min":[0.20539700984954835,
		0.20539700984954835],
		"byteOffset":24,
		"count":1129,
		"max":[0.7946029901504517,
		0.7946029901504517]
	},
	{
		"bufferView":18,
		"type":"SCALAR",
		"componentType":5126,
		"min":[0.0],
		"byteOffset":0,
		"count":61,
		"max":[2.0]
	},
	{
		"bufferView":18,
		"type":"VEC3",
		"componentType":5126,
		"min":[-3.5839676593069679e-16,
		-133.39999389648438,
		2.842170943040401e-14],
		"byteOffset":244,
		"count":61,
		"max":[4.266840515892295e-13,
		133.39999389648438,
		266.79998779296877]
	},
	{
		"bufferView":19,
		"type":"SCALAR",
		"componentType":5126,
		"min":[0.0],
		"byteOffset":0,
		"count":61,
		"max":[2.0]
	},
	{
		"bufferView":19,
		"type":"VEC4",
		"componentType":5126,
		"min":[-0.7071067690849304,
		-1.2680293919842506e-15,
		-3.9355704533770769e-15,
		-1.0],
		"byteOffset":244,
		"count":61,
		"max":[1.0,
		1.0106430784888625e-15,
		4.1693047482489278e-16,
		0.9986737966537476]
	},
	{
		"bufferView":20,
		"type":"SCALAR",
		"componentType":5123,
		"min":[0],
		"byteOffset":0,
		"count":3840,
		"max":[712]
	},
	{
		"bufferView":21,
		"type":"VEC3",
		"componentType":5126,
		"min":[-8.259315490722657,
		4.077199935913086,
		-8.709393501281739],
		"byteOffset":0,
		"count":713,
		"max":[8.972492218017579,
		24.93343162536621,
		8.721637725830079]
	},
	{
		"bufferView":21,
		"type":"VEC3",
		"componentType":5126,
		"min":[-0.9999688267707825,
		-0.9998750686645508,
		-0.9998437762260437],
		"byteOffset":12,
		"count":713,
		"max":[0.9999688267707825,
		0.27521875500679018,
		0.9999688267707825]
	},
	{
		"bufferView":21,
		"type":"VEC2",
		"componentType":5126,
		"min":[0.0,
		0.04576456546783447],
		"byteOffset":24,
		"count":713,
		"max":[1.0,
		1.0]
	},
	{
		"bufferView":22,
		"type":"SCALAR",
		"componentType":5126,
		"min":[0.0],
		"byteOffset":0,
		"count":61,
		"max":[2.0]
	},
	{
		"bufferView":22,
		"type":"VEC3",
		"componentType":5126,
		"min":[-3.5839676593069679e-16,
		-133.39999389648438,
		2.842170943040401e-14],
		"byteOffset":244,
		"count":61,
		"max":[4.266840515892295e-13,
		133.39999389648438,
		266.79998779296877]
	},
	{
		"bufferView":23,
		"type":"SCALAR",
		"componentType":5126,
		"min":[0.0],
		"byteOffset":0,
		"count":61,
		"max":[2.0]
	},
	{
		"bufferView":23,
		"type":"VEC4",
		"componentType":5126,
		"min":[-0.7071067690849304,
		-1.2680293919842506e-15,
		-3.9355704533770769e-15,
		-1.0],
		"byteOffset":244,
		"count":61,
		"max":[1.0,
		1.0106430784888625e-15,
		4.1693047482489278e-16,
		0.9986737966537476]
	},
	{
		"bufferView":24,
		"type":"SCALAR",
		"componentType":5123,
		"min":[0],
		"byteOffset":0,
		"count":1152,
		"max":[245]
	},
	{
		"bufferView":25,
		"type":"VEC3",
		"componentType":5126,
		"min":[-7.0749335289001469,
		24.484909057617189,
		-7.909627914428711],
		"byteOffset":0,
		"count":246,
		"max":[7.78810977935791,
		35.560787200927737,
		6.946646213531494]
	},
	{
		"bufferView":25,
		"type":"VEC3",
		"componentType":5126,
		"min":[-0.9691563248634338,
		0.21668751537799836,
		-0.9762188196182251],
		"byteOffset":12,
		"count":246,
		"max":[0.9691563248634338,
		0.9995312690734863,
		0.9613438248634338]
	},
	{
		"bufferView":25,
		"type":"VEC2",
		"componentType":5126,
		"min":[0.0,
		0.0],
		"byteOffset":24,
		"count":246,
		"max":[1.0,
		0.954235315322876]
	},
	{
		"bufferView":26,
		"type":"SCALAR",
		"componentType":5126,
		"min":[0.0],
		"byteOffset":0,
		"count":61,
		"max":[2.0]
	},
	{
		"bufferView":26,
		"type":"VEC3",
		"componentType":5126,
		"min":[-3.5839676593069679e-16,
		-133.39999389648438,
		2.842170943040401e-14],
		"byteOffset":244,
		"count":61,
		"max":[4.266840515892295e-13,
		133.39999389648438,
		266.79998779296877]
	},
	{
		"bufferView":27,
		"type":"SCALAR",
		"componentType":5126,
		"min":[0.0],
		"byteOffset":0,
		"count":61,
		"max":[2.0]
	},
	{
		"bufferView":27,
		"type":"VEC4",
		"componentType":5126,
		"min":[-0.7071067690849304,
		-1.2680293919842506e-15,
		-3.9355704533770769e-15,
		-1.0],
		"byteOffset":244,
		"count":61,
		"max":[1.0,
		1.0106430784888625e-15,
		4.1693047482489278e-16,
		0.9986737966537476]
	},
	{
		"bufferView":28,
		"type":"SCALAR",
		"componentType":5123,
		"min":[0],
		"byteOffset":0,
		"count":19728,
		"max":[3501]
	},
	{
		"bufferView":29,
		"type":"VEC3",
		"componentType":5126,
		"min":[-97.46089172363281,
		-97.72576141357422,
		-97.50112915039063],
		"byteOffset":0,
		"count":3502,
		"max":[97.46089172363281,
		97.72576141357422,
		97.50112915039063]
	},
	{
		"bufferView":29,
		"type":"VEC3",
		"componentType":5126,
		"min":[-1.0,
		-0.999750018119812,
		-1.0],
		"byteOffset":12,
		"count":3502,
		"max":[1.0,
		0.9998750686645508,
		0.9998750686645508]
	},
	{
		"bufferView":29,
		"type":"VEC2",
		"componentType":5126,
		"min":[0.0182499997317791,
		0.00018749997252598405],
		"byteOffset":24,
		"count":3502,
		"max":[0.9818280935287476,
		0.8444608449935913]
	},
	{
		"bufferView":30,
		"type":"SCALAR",
		"componentType":5123,
		"min":[0],
		"byteOffset":0,
		"count":6240,
		"max":[1196]
	},
	{
		"bufferView":31,
		"type":"VEC3",
		"componentType":5126,
		"min":[-87.98921966552735,
		-88.42660522460938,
		-92.72467041015625],
		"byteOffset":0,
		"count":1197,
		"max":[86.35623168945313,
		96.53813934326172,
		86.03085327148438]
	},
	{
		"bufferView":31,
		"type":"VEC3",
		"componentType":5126,
		"min":[-0.999750018119812,
		-0.9996563196182251,
		-0.9999688267707825],
		"byteOffset":12,
		"count":1197,
		"max":[0.9998750686645508,
		0.9998750686645508,
		0.999125063419342]
	},
	{
		"bufferView":31,
		"type":"VEC2",
		"componentType":5126,
		"min":[0.09583202004432678,
		0.039892926812171939],
		"byteOffset":24,
		"count":1197,
		"max":[0.8713880777359009,
		0.7428884506225586]
	}],
	"bufferViews":[{
		"buffer":0,
		"byteOffset":0,
		"byteLength":87552,
		"target":34963
	},
	{
		"buffer":0,
		"byteOffset":87552,
		"byteLength":263296,
		"target":34962,
		"byteStride":32
	},
	{
		"buffer":1,
		"byteOffset":0,
		"byteLength":976
	},
	{
		"buffer":1,
		"byteOffset":976,
		"byteLength":1220
	},
	{
		"buffer":2,
		"byteOffset":0,
		"byteLength":21888,
		"target":34963
	},
	{
		"buffer":2,
		"byteOffset":21888,
		"byteLength":65824,
		"target":34962,
		"byteStride":32
	},
	{
		"buffer":3,
		"byteOffset":0,
		"byteLength":976
	},
	{
		"buffer":3,
		"byteOffset":976,
		"byteLength":1220
	},
	{
		"buffer":4,
		"byteOffset":0,
		"byteLength":2304,
		"target":34963
	},
	{
		"buffer":4,
		"byteOffset":2304,
		"byteLength":6688,
		"target":34962,
		"byteStride":32
	},
	{
		"buffer":5,
		"byteOffset":0,
		"byteLength":976
	},
	{
		"buffer":5,
		"byteOffset":976,
		"byteLength":1220
	},
	{
		"buffer":6,
		"byteOffset":0,
		"byteLength":4224,
		"target":34963
	},
	{
		"buffer":6,
		"byteOffset":4224,
		"byteLength":13120,
		"target":34962,
		"byteStride":32
	},
	{
		"buffer":7,
		"byteOffset":0,
		"byteLength":976
	},
	{
		"buffer":7,
		"byteOffset":976,
		"byteLength":1220
	},
	{
		"buffer":8,
		"byteOffset":0,
		"byteLength":13056,
		"target":34963
	},
	{
		"buffer":8,
		"byteOffset":13056,
		"byteLength":36128,
		"target":34962,
		"byteStride":32
	},
	{
		"buffer":9,
		"byteOffset":0,
		"byteLength":976
	},
	{
		"buffer":9,
		"byteOffset":976,
		"byteLength":1220
	},
	{
		"buffer":10,
		"byteOffset":0,
		"byteLength":7680,
		"target":34963
	},
	{
		"buffer":10,
		"byteOffset":7680,
		"byteLength":22816,
		"target":34962,
		"byteStride":32
	},
	{
		"buffer":11,
		"byteOffset":0,
		"byteLength":976
	},
	{
		"buffer":11,
		"byteOffset":976,
		"byteLength":1220
	},
	{
		"buffer":12,
		"byteOffset":0,
		"byteLength":2304,
		"target":34963
	},
	{
		"buffer":12,
		"byteOffset":2304,
		"byteLength":7872,
		"target":34962,
		"byteStride":32
	},
	{
		"buffer":13,
		"byteOffset":0,
		"byteLength":976
	},
	{
		"buffer":13,
		"byteOffset":976,
		"byteLength":1220
	},
	{
		"buffer":14,
		"byteOffset":0,
		"byteLength":39456,
		"target":34963
	},
	{
		"buffer":14,
		"byteOffset":39456,
		"byteLength":112064,
		"target":34962,
		"byteStride":32
	},
	{
		"buffer":15,
		"byteOffset":0,
		"byteLength":12480,
		"target":34963
	},
	{
		"buffer":15,
		"byteOffset":12480,
		"byteLength":38304,
		"target":34962,
		"byteStride":32
	}],
	"buffers":[{
		"uri":"data:application/octet-stream;base64,",
		"byteLength":350848
	},
	{
		"uri":"data:application/octet-stream;base64,",
		"byteLength":2196
	},
	{
		"uri":"data:application/octet-stream;base64,",
		"byteLength":87712
	},
	{
		"uri":"data:application/octet-stream;base64,",
		"byteLength":2196
	},
	{
		"uri":"data:application/octet-stream;base64,",
		"byteLength":8992
	},
	{
		"uri":"data:application/octet-stream;base64,",
		"byteLength":2196
	},
	{
		"uri":"data:application/octet-stream;base64,",
		"byteLength":17344
	},
	{
		"uri":"data:application/octet-stream;base64,",
		"byteLength":2196
	},
	{
		"uri":"data:application/octet-stream;base64,",
		"byteLength":49184
	},
	{
		"uri":"data:application/octet-stream;base64,",
		"byteLength":2196
	},
	{
		"uri":"data:application/octet-stream;base64,",
		"byteLength":30496
	},
	{
		"uri":"data:application/octet-stream;base64,",
		"byteLength":2196
	},
	{
		"uri":"data:application/octet-stream;base64,",
		"byteLength":10176
	},
	{
		"uri":"data:application/octet-stream;base64,",
		"byteLength":2196
	},
	{
		"uri":"data:application/octet-stream;base64,",
		"byteLength":151520
	},
	{
		"uri":"data:application/octet-stream;base64,",
		"byteLength":50784
	}],
	"materials":[{
		"pbrMetallicRoughness":{
			"baseColorFactor":[0.33999999999999999,
			0.758,
			1.0,
			1.0],
			"metallicFactor":0.1,
			"roughnessFactor":0.2
		},
		"doubleSided":true,
		"emissiveFactor":[0.0,
		0.0,
		0.0],
		"alphaMode":"OPAQUE",
		"name":"火箭1"
	},
	{
		"pbrMetallicRoughness":{
			"baseColorFactor":[0.5,
			0.8333333333333333,
			1.0,
			1.0],
			"metallicFactor":0.1,
			"roughnessFactor":0.2
		},
		"doubleSided":true,
		"emissiveFactor":[0.0,
		0.0,
		0.0],
		"alphaMode":"OPAQUE",
		"name":"窗户2"
	},
	{
		"pbrMetallicRoughness":{
			"baseColorFactor":[0.33999999999999999,
			0.758,
			1.0,
			1.0],
			"metallicFactor":0.1,
			"roughnessFactor":0.2
		},
		"doubleSided":true,
		"emissiveFactor":[0.0,
		0.0,
		0.0],
		"alphaMode":"OPAQUE",
		"name":"窗户1"
	},
	{
		"pbrMetallicRoughness":{
			"baseColorFactor":[0.8623999999999999,
			0.8761866666666668,
			0.88,
			1.0],
			"metallicFactor":0.1,
			"roughnessFactor":0.2
		},
		"doubleSided":true,
		"emissiveFactor":[0.0,
		0.0,
		0.0],
		"alphaMode":"OPAQUE",
		"name":"火箭2"
	},
	{
		"pbrMetallicRoughness":{
			"baseColorFactor":[0.91,
			0.8766333333333308,
			0.4095,
			1.0],
			"metallicFactor":1.0,
			"roughnessFactor":1.0
		},
		"doubleSided":true,
		"emissiveFactor":[0.0,
		0.0,
		0.0],
		"alphaMode":"OPAQUE",
		"name":"星球1"
	},
	{
		"pbrMetallicRoughness":{
			"baseColorFactor":[0.84,
			0.7851199999999998,
			0.4284,
			1.0],
			"metallicFactor":1.0,
			"roughnessFactor":1.0
		},
		"doubleSided":true,
		"emissiveFactor":[0.0,
		0.0,
		0.0],
		"alphaMode":"OPAQUE",
		"name":"星球1"
	}],
	"animations":[{
		"samplers":[{
			"input":4,
			"interpolation":"LINEAR",
			"output":5
		},
		{
			"input":6,
			"interpolation":"LINEAR",
			"output":7
		},
		{
			"input":12,
			"interpolation":"LINEAR",
			"output":13
		},
		{
			"input":14,
			"interpolation":"LINEAR",
			"output":15
		},
		{
			"input":20,
			"interpolation":"LINEAR",
			"output":21
		},
		{
			"input":22,
			"interpolation":"LINEAR",
			"output":23
		},
		{
			"input":28,
			"interpolation":"LINEAR",
			"output":29
		},
		{
			"input":30,
			"interpolation":"LINEAR",
			"output":31
		},
		{
			"input":36,
			"interpolation":"LINEAR",
			"output":37
		},
		{
			"input":38,
			"interpolation":"LINEAR",
			"output":39
		},
		{
			"input":44,
			"interpolation":"LINEAR",
			"output":45
		},
		{
			"input":46,
			"interpolation":"LINEAR",
			"output":47
		},
		{
			"input":52,
			"interpolation":"LINEAR",
			"output":53
		},
		{
			"input":54,
			"interpolation":"LINEAR",
			"output":55
		}],
		"channels":[{
			"sampler":0,
			"target":{
				"node":1,
				"path":"translation"
			}
		},
		{
			"sampler":1,
			"target":{
				"node":1,
				"path":"rotation"
			}
		},
		{
			"sampler":2,
			"target":{
				"node":2,
				"path":"translation"
			}
		},
		{
			"sampler":3,
			"target":{
				"node":2,
				"path":"rotation"
			}
		},
		{
			"sampler":4,
			"target":{
				"node":3,
				"path":"translation"
			}
		},
		{
			"sampler":5,
			"target":{
				"node":3,
				"path":"rotation"
			}
		},
		{
			"sampler":6,
			"target":{
				"node":4,
				"path":"translation"
			}
		},
		{
			"sampler":7,
			"target":{
				"node":4,
				"path":"rotation"
			}
		},
		{
			"sampler":8,
			"target":{
				"node":5,
				"path":"translation"
			}
		},
		{
			"sampler":9,
			"target":{
				"node":5,
				"path":"rotation"
			}
		},
		{
			"sampler":10,
			"target":{
				"node":6,
				"path":"translation"
			}
		},
		{
			"sampler":11,
			"target":{
				"node":6,
				"path":"rotation"
			}
		},
		{
			"sampler":12,
			"target":{
				"node":7,
				"path":"translation"
			}
		},
		{
			"sampler":13,
			"target":{
				"node":7,
				"path":"rotation"
			}
		}]
	}]
}